<?xml version="1.0" encoding="utf-8"?>
<svg version="1.1" xmlns:xlink="http://www.w3.org/1999/xlink" width="24px" height="29px" xmlns="http://www.w3.org/2000/svg">
  <defs>
    <filter x="218px" y="363px" width="24px" height="29px" filterUnits="userSpaceOnUse" id="filter818">
      <feOffset dx="1" dy="1" in="SourceAlpha" result="shadowOffsetInner" />
      <feGaussianBlur stdDeviation="2.5" in="shadowOffsetInner" result="shadowGaussian" />
      <feComposite in2="shadowGaussian" operator="atop" in="SourceAlpha" result="shadowComposite" />
      <feColorMatrix type="matrix" values="0 0 0 0 0  0 0 0 0 0  0 0 0 0 0  0 0 0 0.698039215686274 0  " in="shadowComposite" />
    </filter>
    <g id="widget819">
      <path d="M 229 385.025308396785  C 226.4 380.650189782637  222.5 378.025118614148  222.5 373.65  C 222.5 371.365714285714  223.8 367.5  229 367.5  C 234.2 367.5  235.5 371.365714285714  235.5 373.65  C 235.5 378.025118614148  231.6 380.650189782637  229 385.025308396785  Z " fill-rule="nonzero" fill="#555555" stroke="none" />
      <path d="M 229 386  C 226.2 381.25  222 378.4  222 373.65  C 222 371.18  223.4 367  229 367  C 234.6 367  236 371.18  236 373.65  C 236 378.4  231.8 381.25  229 386  Z M 229 384.050616793569  C 231.4 380.050379565273  235 377.650237228296  235 373.65  C 235 371.551428571429  233.8 368  229 368  C 224.2 368  223 371.551428571429  223 373.65  C 223 377.650237228296  226.6 380.050379565273  229 384.050616793569  Z " fill-rule="nonzero" fill="#ffffff" stroke="none" />
    </g>
  </defs>
  <g transform="matrix(1 0 0 1 -218 -363 )">
    <use xlink:href="#widget819" filter="url(#filter818)" />
    <use xlink:href="#widget819" />
  </g>
</svg>