<?xml version="1.0" encoding="utf-8"?>
<svg version="1.1" xmlns:xlink="http://www.w3.org/1999/xlink" width="24px" height="29px" xmlns="http://www.w3.org/2000/svg">
  <defs>
    <filter x="53px" y="182px" width="24px" height="29px" filterUnits="userSpaceOnUse" id="filter514">
      <feOffset dx="1" dy="1" in="SourceAlpha" result="shadowOffsetInner" />
      <feGaussianBlur stdDeviation="2.5" in="shadowOffsetInner" result="shadowGaussian" />
      <feComposite in2="shadowGaussian" operator="atop" in="SourceAlpha" result="shadowComposite" />
      <feColorMatrix type="matrix" values="0 0 0 0 0  0 0 0 0 0  0 0 0 0 0  0 0 0 0.698039215686274 0  " in="shadowComposite" />
    </filter>
    <g id="widget515">
      <path d="M 64 204.025308396785  C 61.4 199.650189782637  57.5 197.025118614148  57.5 192.65  C 57.5 190.365714285714  58.8 186.5  64 186.5  C 69.2 186.5  70.5 190.365714285714  70.5 192.65  C 70.5 197.025118614148  66.6 199.650189782637  64 204.025308396785  Z " fill-rule="nonzero" fill="#b8741a" stroke="none" />
      <path d="M 64 205  C 61.2 200.25  57 197.4  57 192.65  C 57 190.18  58.4 186  64 186  C 69.6 186  71 190.18  71 192.65  C 71 197.4  66.8 200.25  64 205  Z M 64 203.050616793569  C 66.4 199.050379565273  70 196.650237228296  70 192.65  C 70 190.551428571429  68.8 187  64 187  C 59.2 187  58 190.551428571429  58 192.65  C 58 196.650237228296  61.6 199.050379565273  64 203.050616793569  Z " fill-rule="nonzero" fill="#ffffff" stroke="none" />
    </g>
  </defs>
  <g transform="matrix(1 0 0 1 -53 -182 )">
    <use xlink:href="#widget515" filter="url(#filter514)" />
    <use xlink:href="#widget515" />
  </g>
</svg>