<?xml version="1.0" encoding="utf-8"?>
<svg version="1.1" xmlns:xlink="http://www.w3.org/1999/xlink" width="29px" height="29px" xmlns="http://www.w3.org/2000/svg">
  <g transform="matrix(1 0 0 1 -280 -510 )">
    <path d="M 294.5 510  C 302.62 510  309 516.38  309 524.5  C 309 532.62  302.62 539  294.5 539  C 286.38 539  280 532.62  280 524.5  C 280 516.38  286.38 510  294.5 510  Z " fill-rule="nonzero" fill="#ffffff" stroke="none" />
    <path d="M 294.5 510.5  C 302.34 510.5  308.5 516.66  308.5 524.5  C 308.5 532.34  302.34 538.5  294.5 538.5  C 286.66 538.5  280.5 532.34  280.5 524.5  C 280.5 516.66  286.66 510.5  294.5 510.5  Z " stroke-width="1" stroke="#797979" fill="none" />
  </g>
</svg>