<?xml version="1.0" encoding="utf-8"?>
<svg version="1.1" xmlns:xlink="http://www.w3.org/1999/xlink" width="21px" height="21px" xmlns="http://www.w3.org/2000/svg">
  <g transform="matrix(1 0 0 1 -284 -494 )">
    <path d="M 20.5823863636364 8.05397727272727  C 20.8607954545455 8.33238636363636  21 8.67045454545454  21 9.06818181818182  L 21 11.9318181818182  C 21 12.3295454545455  20.8607954545455 12.6676136363636  20.5823863636364 12.9460227272727  C 20.3039772727273 13.2244318181818  19.9659090909091 13.3636363636364  19.5681818181818 13.3636363636364  L 13.3636363636364 13.3636363636364  L 13.3636363636364 19.5681818181818  C 13.3636363636364 19.9659090909091  13.2244318181818 20.3039772727273  12.9460227272727 20.5823863636364  C 12.6676136363636 20.8607954545455  12.3295454545455 21  11.9318181818182 21  L 9.06818181818182 21  C 8.67045454545455 21  8.33238636363637 20.8607954545455  8.05397727272727 20.5823863636364  C 7.77556818181818 20.3039772727273  7.63636363636364 19.9659090909091  7.63636363636364 19.5681818181818  L 7.63636363636364 13.3636363636364  L 1.43181818181818 13.3636363636364  C 1.03409090909091 13.3636363636364  0.696022727272727 13.2244318181818  0.417613636363636 12.9460227272727  C 0.139204545454545 12.6676136363636  0 12.3295454545455  0 11.9318181818182  L 0 9.06818181818182  C 0 8.67045454545454  0.139204545454545 8.33238636363636  0.417613636363636 8.05397727272727  C 0.696022727272727 7.77556818181818  1.03409090909091 7.63636363636364  1.43181818181818 7.63636363636364  L 7.63636363636364 7.63636363636364  L 7.63636363636364 1.43181818181818  C 7.63636363636364 1.03409090909091  7.77556818181818 0.696022727272726  8.05397727272727 0.417613636363637  C 8.33238636363637 0.139204545454545  8.67045454545455 0  9.06818181818182 0  L 11.9318181818182 0  C 12.3295454545455 0  12.6676136363636 0.139204545454545  12.9460227272727 0.417613636363637  C 13.2244318181818 0.696022727272726  13.3636363636364 1.03409090909091  13.3636363636364 1.43181818181818  L 13.3636363636364 7.63636363636364  L 19.5681818181818 7.63636363636364  C 19.9659090909091 7.63636363636364  20.3039772727273 7.77556818181818  20.5823863636364 8.05397727272727  Z " fill-rule="nonzero" fill="#000000" stroke="none" transform="matrix(1 0 0 1 284 494 )" />
  </g>
</svg>