<?xml version="1.0" encoding="utf-8"?>
<svg version="1.1" xmlns:xlink="http://www.w3.org/1999/xlink" width="35px" height="35px" xmlns="http://www.w3.org/2000/svg">
  <defs>
    <filter x="22px" y="74px" width="35px" height="35px" filterUnits="userSpaceOnUse" id="filter550">
      <feOffset dx="1" dy="1" in="SourceAlpha" result="shadowOffsetInner" />
      <feGaussianBlur stdDeviation="2.5" in="shadowOffsetInner" result="shadowGaussian" />
      <feComposite in2="shadowGaussian" operator="atop" in="SourceAlpha" result="shadowComposite" />
      <feColorMatrix type="matrix" values="0 0 0 0 0  0 0 0 0 0  0 0 0 0 0  0 0 0 0.698039215686274 0  " in="shadowComposite" />
    </filter>
    <g id="widget551">
      <path d="M 38.5 78  C 45.5 78  51 83.5  51 90.5  C 51 97.5  45.5 103  38.5 103  C 31.5 103  26 97.5  26 90.5  C 26 83.5  31.5 78  38.5 78  Z " fill-rule="nonzero" fill="#d9001b" stroke="none" />
      <path d="M 38.5 78.5  C 45.22 78.5  50.5 83.78  50.5 90.5  C 50.5 97.22  45.22 102.5  38.5 102.5  C 31.78 102.5  26.5 97.22  26.5 90.5  C 26.5 83.78  31.78 78.5  38.5 78.5  Z " stroke-width="1" stroke="#ffffff" fill="none" />
    </g>
  </defs>
  <g transform="matrix(1 0 0 1 -22 -74 )">
    <use xlink:href="#widget551" filter="url(#filter550)" />
    <use xlink:href="#widget551" />
  </g>
</svg>