<?xml version="1.0" encoding="utf-8"?>
<svg version="1.1" xmlns:xlink="http://www.w3.org/1999/xlink" width="28px" height="28px" xmlns="http://www.w3.org/2000/svg">
  <g transform="matrix(1 0 0 1 -282 -478 )">
    <path d="M 27.4431818181818 10.7386363636364  C 27.8143939393939 11.1098484848485  28 11.5606060606061  28 12.0909090909091  L 28 15.9090909090909  C 28 16.4393939393939  27.8143939393939 16.8901515151515  27.4431818181818 17.2613636363636  C 27.0719696969697 17.6325757575758  26.6212121212121 17.8181818181818  26.0909090909091 17.8181818181818  L 17.8181818181818 17.8181818181818  L 17.8181818181818 26.0909090909091  C 17.8181818181818 26.6212121212121  17.6325757575758 27.0719696969697  17.2613636363636 27.4431818181818  C 16.8901515151515 27.8143939393939  16.4393939393939 28  15.9090909090909 28  L 12.0909090909091 28  C 11.5606060606061 28  11.1098484848485 27.8143939393939  10.7386363636364 27.4431818181818  C 10.3674242424242 27.0719696969697  10.1818181818182 26.6212121212121  10.1818181818182 26.0909090909091  L 10.1818181818182 17.8181818181818  L 1.90909090909091 17.8181818181818  C 1.37878787878788 17.8181818181818  0.928030303030303 17.6325757575758  0.556818181818182 17.2613636363636  C 0.185606060606061 16.8901515151515  0 16.4393939393939  0 15.9090909090909  L 0 12.0909090909091  C 0 11.5606060606061  0.185606060606061 11.1098484848485  0.556818181818182 10.7386363636364  C 0.928030303030303 10.3674242424242  1.37878787878788 10.1818181818182  1.90909090909091 10.1818181818182  L 10.1818181818182 10.1818181818182  L 10.1818181818182 1.90909090909091  C 10.1818181818182 1.37878787878788  10.3674242424242 0.928030303030301  10.7386363636364 0.556818181818182  C 11.1098484848485 0.18560606060606  11.5606060606061 0  12.0909090909091 0  L 15.9090909090909 0  C 16.4393939393939 0  16.8901515151515 0.18560606060606  17.2613636363636 0.556818181818182  C 17.6325757575758 0.928030303030301  17.8181818181818 1.37878787878788  17.8181818181818 1.90909090909091  L 17.8181818181818 10.1818181818182  L 26.0909090909091 10.1818181818182  C 26.6212121212121 10.1818181818182  27.0719696969697 10.3674242424242  27.4431818181818 10.7386363636364  Z " fill-rule="nonzero" fill="#000000" stroke="none" transform="matrix(1 0 0 1 282 478 )" />
  </g>
</svg>