<?xml version="1.0" encoding="utf-8"?>
<svg version="1.1" xmlns:xlink="http://www.w3.org/1999/xlink" width="35px" height="35px" xmlns="http://www.w3.org/2000/svg">
  <defs>
    <filter x="183px" y="74px" width="35px" height="35px" filterUnits="userSpaceOnUse" id="filter571">
      <feOffset dx="1" dy="1" in="SourceAlpha" result="shadowOffsetInner" />
      <feGaussianBlur stdDeviation="2.5" in="shadowOffsetInner" result="shadowGaussian" />
      <feComposite in2="shadowGaussian" operator="atop" in="SourceAlpha" result="shadowComposite" />
      <feColorMatrix type="matrix" values="0 0 0 0 0  0 0 0 0 0  0 0 0 0 0  0 0 0 0.698039215686274 0  " in="shadowComposite" />
    </filter>
    <g id="widget572">
      <path d="M 199.5 78  C 206.5 78  212 83.5  212 90.5  C 212 97.5  206.5 103  199.5 103  C 192.5 103  187 97.5  187 90.5  C 187 83.5  192.5 78  199.5 78  Z " fill-rule="nonzero" fill="#009dd9" stroke="none" />
      <path d="M 199.5 78.5  C 206.22 78.5  211.5 83.78  211.5 90.5  C 211.5 97.22  206.22 102.5  199.5 102.5  C 192.78 102.5  187.5 97.22  187.5 90.5  C 187.5 83.78  192.78 78.5  199.5 78.5  Z " stroke-width="1" stroke="#ffffff" fill="none" />
    </g>
  </defs>
  <g transform="matrix(1 0 0 1 -183 -74 )">
    <use xlink:href="#widget572" filter="url(#filter571)" />
    <use xlink:href="#widget572" />
  </g>
</svg>