<?xml version="1.0" encoding="utf-8"?>
<svg version="1.1" xmlns:xlink="http://www.w3.org/1999/xlink" width="35px" height="35px" xmlns="http://www.w3.org/2000/svg">
  <defs>
    <filter x="22px" y="20px" width="35px" height="35px" filterUnits="userSpaceOnUse" id="filter590">
      <feOffset dx="1" dy="1" in="SourceAlpha" result="shadowOffsetInner" />
      <feGaussianBlur stdDeviation="2.5" in="shadowOffsetInner" result="shadowGaussian" />
      <feComposite in2="shadowGaussian" operator="atop" in="SourceAlpha" result="shadowComposite" />
      <feColorMatrix type="matrix" values="0 0 0 0 0  0 0 0 0 0  0 0 0 0 0  0 0 0 0.698039215686274 0  " in="shadowComposite" />
    </filter>
    <g id="widget591">
      <path d="M 38.5 24  C 45.5 24  51 29.5  51 36.5  C 51 43.5  45.5 49  38.5 49  C 31.5 49  26 43.5  26 36.5  C 26 29.5  31.5 24  38.5 24  Z " fill-rule="nonzero" fill="#66cc00" stroke="none" />
      <path d="M 38.5 24.5  C 45.22 24.5  50.5 29.78  50.5 36.5  C 50.5 43.22  45.22 48.5  38.5 48.5  C 31.78 48.5  26.5 43.22  26.5 36.5  C 26.5 29.78  31.78 24.5  38.5 24.5  Z " stroke-width="1" stroke="#ffffff" fill="none" />
    </g>
  </defs>
  <g transform="matrix(1 0 0 1 -22 -20 )">
    <use xlink:href="#widget591" filter="url(#filter590)" />
    <use xlink:href="#widget591" />
  </g>
</svg>