<?xml version="1.0" encoding="utf-8"?>
<svg version="1.1" xmlns:xlink="http://www.w3.org/1999/xlink" width="29px" height="29px" xmlns="http://www.w3.org/2000/svg">
  <g transform="matrix(1 0 0 1 -280 -490 )">
    <path d="M 294.5 490  C 302.62 490  309 496.38  309 504.5  C 309 512.62  302.62 519  294.5 519  C 286.38 519  280 512.62  280 504.5  C 280 496.38  286.38 490  294.5 490  Z " fill-rule="nonzero" fill="#ffffff" stroke="none" />
    <path d="M 294.5 490.5  C 302.34 490.5  308.5 496.66  308.5 504.5  C 308.5 512.34  302.34 518.5  294.5 518.5  C 286.66 518.5  280.5 512.34  280.5 504.5  C 280.5 496.66  286.66 490.5  294.5 490.5  Z " stroke-width="1" stroke="#797979" fill="none" />
  </g>
</svg>