<?xml version="1.0" encoding="utf-8"?>
<svg version="1.1" xmlns:xlink="http://www.w3.org/1999/xlink" width="35px" height="35px" xmlns="http://www.w3.org/2000/svg">
  <defs>
    <filter x="262px" y="20px" width="35px" height="35px" filterUnits="userSpaceOnUse" id="filter824">
      <feOffset dx="1" dy="1" in="SourceAlpha" result="shadowOffsetInner" />
      <feGaussianBlur stdDeviation="2.5" in="shadowOffsetInner" result="shadowGaussian" />
      <feComposite in2="shadowGaussian" operator="atop" in="SourceAlpha" result="shadowComposite" />
      <feColorMatrix type="matrix" values="0 0 0 0 0  0 0 0 0 0  0 0 0 0 0  0 0 0 0.698039215686274 0  " in="shadowComposite" />
    </filter>
    <g id="widget825">
      <path d="M 278.5 24  C 285.5 24  291 29.5  291 36.5  C 291 43.5  285.5 49  278.5 49  C 271.5 49  266 43.5  266 36.5  C 266 29.5  271.5 24  278.5 24  Z " fill-rule="nonzero" fill="#02a7f0" stroke="none" />
      <path d="M 278.5 24.5  C 285.22 24.5  290.5 29.78  290.5 36.5  C 290.5 43.22  285.22 48.5  278.5 48.5  C 271.78 48.5  266.5 43.22  266.5 36.5  C 266.5 29.78  271.78 24.5  278.5 24.5  Z " stroke-width="1" stroke="#ffffff" fill="none" />
    </g>
  </defs>
  <g transform="matrix(1 0 0 1 -262 -20 )">
    <use xlink:href="#widget825" filter="url(#filter824)" />
    <use xlink:href="#widget825" />
  </g>
</svg>