<?xml version="1.0" encoding="utf-8"?>
<svg version="1.1" xmlns:xlink="http://www.w3.org/1999/xlink" width="35px" height="35px" xmlns="http://www.w3.org/2000/svg">
  <defs>
    <filter x="23px" y="20px" width="35px" height="35px" filterUnits="userSpaceOnUse" id="filter1128">
      <feOffset dx="1" dy="1" in="SourceAlpha" result="shadowOffsetInner" />
      <feGaussianBlur stdDeviation="2.5" in="shadowOffsetInner" result="shadowGaussian" />
      <feComposite in2="shadowGaussian" operator="atop" in="SourceAlpha" result="shadowComposite" />
      <feColorMatrix type="matrix" values="0 0 0 0 0  0 0 0 0 0  0 0 0 0 0  0 0 0 0.698039215686274 0  " in="shadowComposite" />
    </filter>
    <g id="widget1129">
      <path d="M 39.5 24  C 46.5 24  52 29.5  52 36.5  C 52 43.5  46.5 49  39.5 49  C 32.5 49  27 43.5  27 36.5  C 27 29.5  32.5 24  39.5 24  Z " fill-rule="nonzero" fill="#66cc00" stroke="none" />
      <path d="M 39.5 24.5  C 46.22 24.5  51.5 29.78  51.5 36.5  C 51.5 43.22  46.22 48.5  39.5 48.5  C 32.78 48.5  27.5 43.22  27.5 36.5  C 27.5 29.78  32.78 24.5  39.5 24.5  Z " stroke-width="1" stroke="#ffffff" fill="none" />
    </g>
  </defs>
  <g transform="matrix(1 0 0 1 -23 -20 )">
    <use xlink:href="#widget1129" filter="url(#filter1128)" />
    <use xlink:href="#widget1129" />
  </g>
</svg>