<?xml version="1.0" encoding="utf-8"?>
<svg version="1.1" xmlns:xlink="http://www.w3.org/1999/xlink" width="35px" height="35px" xmlns="http://www.w3.org/2000/svg">
  <defs>
    <filter x="103px" y="20px" width="35px" height="35px" filterUnits="userSpaceOnUse" id="filter848">
      <feOffset dx="1" dy="1" in="SourceAlpha" result="shadowOffsetInner" />
      <feGaussianBlur stdDeviation="2.5" in="shadowOffsetInner" result="shadowGaussian" />
      <feComposite in2="shadowGaussian" operator="atop" in="SourceAlpha" result="shadowComposite" />
      <feColorMatrix type="matrix" values="0 0 0 0 0  0 0 0 0 0  0 0 0 0 0  0 0 0 0.698039215686274 0  " in="shadowComposite" />
    </filter>
    <g id="widget849">
      <path d="M 119.5 24  C 126.5 24  132 29.5  132 36.5  C 132 43.5  126.5 49  119.5 49  C 112.5 49  107 43.5  107 36.5  C 107 29.5  112.5 24  119.5 24  Z " fill-rule="nonzero" fill="#009dd9" stroke="none" />
      <path d="M 119.5 24.5  C 126.22 24.5  131.5 29.78  131.5 36.5  C 131.5 43.22  126.22 48.5  119.5 48.5  C 112.78 48.5  107.5 43.22  107.5 36.5  C 107.5 29.78  112.78 24.5  119.5 24.5  Z " stroke-width="1" stroke="#ffffff" fill="none" />
    </g>
  </defs>
  <g transform="matrix(1 0 0 1 -103 -20 )">
    <use xlink:href="#widget849" filter="url(#filter848)" />
    <use xlink:href="#widget849" />
  </g>
</svg>