<?xml version="1.0" encoding="utf-8"?>
<svg version="1.1" xmlns:xlink="http://www.w3.org/1999/xlink" width="117px" height="81px" xmlns="http://www.w3.org/2000/svg">
  <g transform="matrix(1 0 0 1 -195 -57 )">
    <path d="M 195 57  L 312 57  L 312 138  L 195 138  L 195 57  " fill-rule="nonzero" fill="#cccccc" stroke="none" />
    <path d="M 201 63  L 306 63  L 306 132  L 201 132  L 201 63  " fill-rule="nonzero" fill="#ffffff" stroke="none" />
    <path d="M 261.915 81.3  C 258.513 81.3  255.84 78.627  255.84 75.225  C 255.84 71.823  258.513 69.15  261.915 69.15  C 265.317 69.15  267.99 71.823  267.99 75.225  C 267.99 78.627  265.317 81.3  261.915 81.3  " fill-rule="nonzero" fill="#cccccc" stroke="none" />
    <path d="M 203 130  L 203 94.25  L 228.25 78  L 263.6 103  L 283.8 87.75  L 304 103  L 304 130  L 203 130  " fill-rule="nonzero" fill="#169bd5" stroke="none" />
  </g>
</svg>