<?xml version="1.0" encoding="utf-8"?>
<svg version="1.1" xmlns:xlink="http://www.w3.org/1999/xlink" width="21px" height="25px" xmlns="http://www.w3.org/2000/svg">
  <defs>
    <filter x="249px" y="118px" width="21px" height="25px" filterUnits="userSpaceOnUse" id="filter541">
      <feOffset dx="1" dy="1" in="SourceAlpha" result="shadowOffsetInner" />
      <feGaussianBlur stdDeviation="2.5" in="shadowOffsetInner" result="shadowGaussian" />
      <feComposite in2="shadowGaussian" operator="atop" in="SourceAlpha" result="shadowComposite" />
      <feColorMatrix type="matrix" values="0 0 0 0 0  0 0 0 0 0  0 0 0 0 0  0 0 0 0.698039215686274 0  " in="shadowComposite" />
    </filter>
    <g id="widget542">
      <path d="M 258.5 136.022139286357  C 256.5 132.648239560835  253.5 130.623899725522  253.5 127.25  C 253.5 125.485714285714  254.5 122.5  258.5 122.5  C 262.5 122.5  263.5 125.485714285714  263.5 127.25  C 263.5 130.623899725522  260.5 132.648239560835  258.5 136.022139286357  Z " fill-rule="nonzero" fill="#c280ff" stroke="none" />
      <path d="M 258.5 137  C 256.3 133.25  253 131  253 127.25  C 253 125.3  254.1 122  258.5 122  C 262.9 122  264 125.3  264 127.25  C 264 131  260.7 133.25  258.5 137  Z M 258.5 135.044278572713  C 260.3 132.04647912167  263 130.247799451044  263 127.25  C 263 125.671428571429  262.1 123  258.5 123  C 254.9 123  254 125.671428571429  254 127.25  C 254 130.247799451044  256.7 132.04647912167  258.5 135.044278572713  Z " fill-rule="nonzero" fill="#ffffff" stroke="none" />
    </g>
  </defs>
  <g transform="matrix(1 0 0 1 -249 -118 )">
    <use xlink:href="#widget542" filter="url(#filter541)" />
    <use xlink:href="#widget542" />
  </g>
</svg>