<?xml version="1.0" encoding="utf-8"?>
<svg version="1.1" xmlns:xlink="http://www.w3.org/1999/xlink" width="12px" height="12px" viewBox="190 428  12 12" xmlns="http://www.w3.org/2000/svg">
  <path d="M 196 428  C 199.36 428  202 430.64  202 434  C 202 437.36  199.36 440  196 440  C 192.64 440  190 437.36  190 434  C 190 430.64  192.64 428  196 428  Z " fill-rule="nonzero" fill="#ffffff" stroke="none" />
  <path d="M 196 428.5  C 199.08 428.5  201.5 430.92  201.5 434  C 201.5 437.08  199.08 439.5  196 439.5  C 192.92 439.5  190.5 437.08  190.5 434  C 190.5 430.92  192.92 428.5  196 428.5  Z " stroke-width="1" stroke="#797979" fill="none" />
  <path d="M 196 437  C 194.32 437  193 435.68  193 434  C 193 432.32  194.32 431  196 431  C 197.68 431  199 432.32  199 434  C 199 435.68  197.68 437  196 437  " fill-rule="nonzero" fill="#797979" stroke="none" />
</svg>