<?xml version="1.0" encoding="utf-8"?>
<svg version="1.1" xmlns:xlink="http://www.w3.org/1999/xlink" width="12px" height="12px" viewBox="74 363  12 12" xmlns="http://www.w3.org/2000/svg">
  <path d="M 80 363  C 83.36 363  86 365.64  86 369  C 86 372.36  83.36 375  80 375  C 76.64 375  74 372.36  74 369  C 74 365.64  76.64 363  80 363  Z " fill-rule="nonzero" fill="#ffffff" stroke="none" />
  <path d="M 80 363.5  C 83.08 363.5  85.5 365.92  85.5 369  C 85.5 372.08  83.08 374.5  80 374.5  C 76.92 374.5  74.5 372.08  74.5 369  C 74.5 365.92  76.92 363.5  80 363.5  Z " stroke-width="1" stroke="#797979" fill="none" />
  <path d="M 80 372  C 78.32 372  77 370.68  77 369  C 77 367.32  78.32 366  80 366  C 81.68 366  83 367.32  83 369  C 83 370.68  81.68 372  80 372  " fill-rule="nonzero" fill="#797979" stroke="none" />
</svg>