<?xml version="1.0" encoding="utf-8"?>
<svg version="1.1" xmlns:xlink="http://www.w3.org/1999/xlink" width="12px" height="12px" viewBox="14 226  12 12" xmlns="http://www.w3.org/2000/svg">
  <path d="M 20 226  C 23.36 226  26 228.64  26 232  C 26 235.36  23.36 238  20 238  C 16.64 238  14 235.36  14 232  C 14 228.64  16.64 226  20 226  Z " fill-rule="nonzero" fill="#ffffff" stroke="none" />
  <path d="M 20 226.5  C 23.08 226.5  25.5 228.92  25.5 232  C 25.5 235.08  23.08 237.5  20 237.5  C 16.92 237.5  14.5 235.08  14.5 232  C 14.5 228.92  16.92 226.5  20 226.5  Z " stroke-width="1" stroke="#797979" fill="none" />
  <path d="M 20 235  C 18.32 235  17 233.68  17 232  C 17 230.32  18.32 229  20 229  C 21.68 229  23 230.32  23 232  C 23 233.68  21.68 235  20 235  " fill-rule="nonzero" fill="#797979" stroke="none" />
</svg>