<?xml version="1.0" encoding="utf-8"?>
<svg version="1.1" xmlns:xlink="http://www.w3.org/1999/xlink" width="12px" height="12px" viewBox="124 428  12 12" xmlns="http://www.w3.org/2000/svg">
  <path d="M 130 428  C 133.36 428  136 430.64  136 434  C 136 437.36  133.36 440  130 440  C 126.64 440  124 437.36  124 434  C 124 430.64  126.64 428  130 428  Z " fill-rule="nonzero" fill="#ffffff" stroke="none" />
  <path d="M 130 428.5  C 133.08 428.5  135.5 430.92  135.5 434  C 135.5 437.08  133.08 439.5  130 439.5  C 126.92 439.5  124.5 437.08  124.5 434  C 124.5 430.92  126.92 428.5  130 428.5  Z " stroke-width="1" stroke="#797979" fill="none" />
  <path d="M 130 437  C 128.32 437  127 435.68  127 434  C 127 432.32  128.32 431  130 431  C 131.68 431  133 432.32  133 434  C 133 435.68  131.68 437  130 437  " fill-rule="nonzero" fill="#797979" stroke="none" />
</svg>