<?xml version="1.0" encoding="utf-8"?>
<svg version="1.1" xmlns:xlink="http://www.w3.org/1999/xlink" width="12px" height="12px" viewBox="74 542  12 12" xmlns="http://www.w3.org/2000/svg">
  <path d="M 80 542  C 83.36 542  86 544.64  86 548  C 86 551.36  83.36 554  80 554  C 76.64 554  74 551.36  74 548  C 74 544.64  76.64 542  80 542  Z " fill-rule="nonzero" fill="#ffffff" stroke="none" />
  <path d="M 80 542.5  C 83.08 542.5  85.5 544.92  85.5 548  C 85.5 551.08  83.08 553.5  80 553.5  C 76.92 553.5  74.5 551.08  74.5 548  C 74.5 544.92  76.92 542.5  80 542.5  Z " stroke-width="1" stroke="#797979" fill="none" />
  <path d="M 80 551  C 78.32 551  77 549.68  77 548  C 77 546.32  78.32 545  80 545  C 81.68 545  83 546.32  83 548  C 83 549.68  81.68 551  80 551  " fill-rule="nonzero" fill="#797979" stroke="none" />
</svg>