<?xml version="1.0" encoding="utf-8"?>
<svg version="1.1" xmlns:xlink="http://www.w3.org/1999/xlink" width="94px" height="70px" xmlns="http://www.w3.org/2000/svg">
  <g transform="matrix(1 0 0 1 -110 -443 )">
    <path d="M 110 443  L 204 443  L 204 513  L 110 513  L 110 443  " fill-rule="nonzero" fill="#cccccc" stroke="none" />
    <path d="M 115 448  L 199 448  L 199 508  L 115 508  L 115 448  " fill-rule="nonzero" fill="#ffffff" stroke="none" />
    <path d="M 164.13 464  C 161.19 464  158.88 461.69  158.88 458.75  C 158.88 455.81  161.19 453.5  164.13 453.5  C 167.07 453.5  169.38 455.81  169.38 458.75  C 169.38 461.69  167.07 464  164.13 464  " fill-rule="nonzero" fill="#cccccc" stroke="none" />
    <path d="M 117 506  L 117 475.2  L 137 461.2  L 165 480.978723404255  L 181 469.6  L 197 480.978723404255  L 197 506  L 117 506  " fill-rule="nonzero" fill="#169bd5" stroke="none" />
  </g>
</svg>