<?xml version="1.0" encoding="utf-8"?>
<svg version="1.1" xmlns:xlink="http://www.w3.org/1999/xlink" width="35px" height="35px" xmlns="http://www.w3.org/2000/svg">
  <defs>
    <mask fill="white" id="clip972">
      <path d="M 0 12.5  C 0 5.5  5.5 0  12.5 0  C 19.5 0  25 5.5  25 12.5  C 25 17.6755573327957  21.9933639718816 22.0311230215591  17.5968209693981 23.9499680125368  C 16.0469896901459 24.6263826377033  14.3244426672043 25  12.5 25  C 5.5 25  0 19.5  0 12.5  Z " fill-rule="evenodd" />
    </mask>
    <filter x="262px" y="18px" width="35px" height="35px" filterUnits="userSpaceOnUse" id="filter973">
      <feOffset dx="1" dy="1" in="SourceAlpha" result="shadowOffsetInner" />
      <feGaussianBlur stdDeviation="2.5" in="shadowOffsetInner" result="shadowGaussian" />
      <feComposite in2="shadowGaussian" operator="atop" in="SourceAlpha" result="shadowComposite" />
      <feColorMatrix type="matrix" values="0 0 0 0 0  0 0 0 0 0  0 0 0 0 0  0 0 0 0.698039215686274 0  " in="shadowComposite" />
    </filter>
    <g id="widget974">
      <path d="M 0 12.5  C 0 5.5  5.5 0  12.5 0  C 19.5 0  25 5.5  25 12.5  C 25 17.6755573327957  21.9933639718816 22.0311230215591  17.5968209693981 23.9499680125368  C 16.0469896901459 24.6263826377033  14.3244426672043 25  12.5 25  C 5.5 25  0 19.5  0 12.5  Z " fill-rule="nonzero" fill="#02a7f0" stroke="none" transform="matrix(1 0 0 1 266 22 )" />
      <path d="M 0 12.5  C 0 5.5  5.5 0  12.5 0  C 19.5 0  25 5.5  25 12.5  C 25 17.6755573327957  21.9933639718816 22.0311230215591  17.5968209693981 23.9499680125368  C 16.0469896901459 24.6263826377033  14.3244426672043 25  12.5 25  C 5.5 25  0 19.5  0 12.5  Z " stroke-width="2" stroke="#ffffff" fill="none" transform="matrix(1 0 0 1 266 22 )" mask="url(#clip972)" />
    </g>
  </defs>
  <g transform="matrix(1 0 0 1 -262 -18 )">
    <use xlink:href="#widget974" filter="url(#filter973)" />
    <use xlink:href="#widget974" />
  </g>
</svg>