<?xml version="1.0" encoding="utf-8"?>
<svg version="1.1" xmlns:xlink="http://www.w3.org/1999/xlink" width="94px" height="70px" xmlns="http://www.w3.org/2000/svg">
  <g transform="matrix(1 0 0 1 -110 -323 )">
    <path d="M 110 323  L 204 323  L 204 393  L 110 393  L 110 323  " fill-rule="nonzero" fill="#cccccc" stroke="none" />
    <path d="M 115 328  L 199 328  L 199 388  L 115 388  L 115 328  " fill-rule="nonzero" fill="#ffffff" stroke="none" />
    <path d="M 164.13 344  C 161.19 344  158.88 341.69  158.88 338.75  C 158.88 335.81  161.19 333.5  164.13 333.5  C 167.07 333.5  169.38 335.81  169.38 338.75  C 169.38 341.69  167.07 344  164.13 344  " fill-rule="nonzero" fill="#cccccc" stroke="none" />
    <path d="M 117 386  L 117 355.2  L 137 341.2  L 165 360.978723404255  L 181 349.6  L 197 360.978723404255  L 197 386  L 117 386  " fill-rule="nonzero" fill="#169bd5" stroke="none" />
  </g>
</svg>