<?xml version="1.0" encoding="utf-8"?>
<svg version="1.1" xmlns:xlink="http://www.w3.org/1999/xlink" width="94px" height="70px" xmlns="http://www.w3.org/2000/svg">
  <g transform="matrix(1 0 0 1 -110 -434 )">
    <path d="M 110 434  L 204 434  L 204 504  L 110 504  L 110 434  " fill-rule="nonzero" fill="#cccccc" stroke="none" />
    <path d="M 115 439  L 199 439  L 199 499  L 115 499  L 115 439  " fill-rule="nonzero" fill="#ffffff" stroke="none" />
    <path d="M 164.13 455  C 161.19 455  158.88 452.69  158.88 449.75  C 158.88 446.81  161.19 444.5  164.13 444.5  C 167.07 444.5  169.38 446.81  169.38 449.75  C 169.38 452.69  167.07 455  164.13 455  " fill-rule="nonzero" fill="#cccccc" stroke="none" />
    <path d="M 117 497  L 117 466.2  L 137 452.2  L 165 471.978723404255  L 181 460.6  L 197 471.978723404255  L 197 497  L 117 497  " fill-rule="nonzero" fill="#169bd5" stroke="none" />
  </g>
</svg>