<?xml version="1.0" encoding="utf-8"?>
<svg version="1.1" xmlns:xlink="http://www.w3.org/1999/xlink" width="31px" height="31px" xmlns="http://www.w3.org/2000/svg">
  <g transform="matrix(1 0 0 1 -279 -25 )">
    <path d="M 294.5 26  C 302.62 26  309 32.38  309 40.5  C 309 48.62  302.62 55  294.5 55  C 286.38 55  280 48.62  280 40.5  C 280 32.38  286.38 26  294.5 26  Z " fill-rule="nonzero" fill="#ffffff" stroke="none" fill-opacity="0" />
    <path d="M 294.5 26  C 302.62 26  309 32.38  309 40.5  C 309 48.62  302.62 55  294.5 55  C 286.38 55  280 48.62  280 40.5  C 280 32.38  286.38 26  294.5 26  Z " stroke-width="2" stroke="#ffffff" fill="none" />
  </g>
</svg>