<?xml version="1.0" encoding="utf-8"?>
<svg version="1.1" xmlns:xlink="http://www.w3.org/1999/xlink" width="35px" height="35px" xmlns="http://www.w3.org/2000/svg">
  <defs>
    <filter x="262px" y="74px" width="35px" height="35px" filterUnits="userSpaceOnUse" id="filter1101">
      <feOffset dx="1" dy="1" in="SourceAlpha" result="shadowOffsetInner" />
      <feGaussianBlur stdDeviation="2.5" in="shadowOffsetInner" result="shadowGaussian" />
      <feComposite in2="shadowGaussian" operator="atop" in="SourceAlpha" result="shadowComposite" />
      <feColorMatrix type="matrix" values="0 0 0 0 0  0 0 0 0 0  0 0 0 0 0  0 0 0 0.698039215686274 0  " in="shadowComposite" />
    </filter>
    <g id="widget1102">
      <path d="M 278.5 78  C 285.5 78  291 83.5  291 90.5  C 291 97.5  285.5 103  278.5 103  C 271.5 103  266 97.5  266 90.5  C 266 83.5  271.5 78  278.5 78  Z " fill-rule="nonzero" fill="#d9001b" stroke="none" />
      <path d="M 278.5 78.5  C 285.22 78.5  290.5 83.78  290.5 90.5  C 290.5 97.22  285.22 102.5  278.5 102.5  C 271.78 102.5  266.5 97.22  266.5 90.5  C 266.5 83.78  271.78 78.5  278.5 78.5  Z " stroke-width="1" stroke="#ffffff" fill="none" />
    </g>
  </defs>
  <g transform="matrix(1 0 0 1 -262 -74 )">
    <use xlink:href="#widget1102" filter="url(#filter1101)" />
    <use xlink:href="#widget1102" />
  </g>
</svg>