<?xml version="1.0" encoding="utf-8"?>
<svg version="1.1" xmlns:xlink="http://www.w3.org/1999/xlink" width="94px" height="70px" xmlns="http://www.w3.org/2000/svg">
  <g transform="matrix(1 0 0 1 -196 -284 )">
    <path d="M 196 284  L 290 284  L 290 354  L 196 354  L 196 284  " fill-rule="nonzero" fill="#cccccc" stroke="none" />
    <path d="M 201 289  L 285 289  L 285 349  L 201 349  L 201 289  " fill-rule="nonzero" fill="#ffffff" stroke="none" />
    <path d="M 250.13 305  C 247.19 305  244.88 302.69  244.88 299.75  C 244.88 296.81  247.19 294.5  250.13 294.5  C 253.07 294.5  255.38 296.81  255.38 299.75  C 255.38 302.69  253.07 305  250.13 305  " fill-rule="nonzero" fill="#cccccc" stroke="none" />
    <path d="M 203 347  L 203 316.2  L 223 302.2  L 251 321.978723404255  L 267 310.6  L 283 321.978723404255  L 283 347  L 203 347  " fill-rule="nonzero" fill="#169bd5" stroke="none" />
  </g>
</svg>