<?xml version="1.0" encoding="utf-8"?>
<svg version="1.1" xmlns:xlink="http://www.w3.org/1999/xlink" width="6px" height="6px" xmlns="http://www.w3.org/2000/svg">
  <g transform="matrix(1 0 0 1 -126 -157 )">
    <path d="M 129 157  C 130.68 157  132 158.32  132 160  C 132 161.68  130.68 163  129 163  C 127.32 163  126 161.68  126 160  C 126 158.32  127.32 157  129 157  Z " fill-rule="nonzero" fill="#ffffff" stroke="none" />
    <path d="M 129 157.5  C 130.4 157.5  131.5 158.6  131.5 160  C 131.5 161.4  130.4 162.5  129 162.5  C 127.6 162.5  126.5 161.4  126.5 160  C 126.5 158.6  127.6 157.5  129 157.5  Z " stroke-width="1" stroke="#f2f2f2" fill="none" />
  </g>
</svg>