<?xml version="1.0" encoding="utf-8"?>
<svg version="1.1" xmlns:xlink="http://www.w3.org/1999/xlink" width="6px" height="6px" xmlns="http://www.w3.org/2000/svg">
  <g transform="matrix(1 0 0 1 -36 -6 )">
    <path d="M 39 6  C 40.68 6  42 7.32  42 9  C 42 10.68  40.68 12  39 12  C 37.32 12  36 10.68  36 9  C 36 7.32  37.32 6  39 6  Z " fill-rule="nonzero" fill="#ffffff" stroke="none" fill-opacity="0" />
    <path d="M 39 6.5  C 40.4 6.5  41.5 7.6  41.5 9  C 41.5 10.4  40.4 11.5  39 11.5  C 37.6 11.5  36.5 10.4  36.5 9  C 36.5 7.6  37.6 6.5  39 6.5  Z " stroke-width="1" stroke="#f2f2f2" fill="none" />
  </g>
</svg>