<?xml version="1.0" encoding="utf-8"?>
<svg version="1.1" xmlns:xlink="http://www.w3.org/1999/xlink" width="6px" height="6px" xmlns="http://www.w3.org/2000/svg">
  <g transform="matrix(1 0 0 1 -156 -157 )">
    <path d="M 159 157  C 160.68 157  162 158.32  162 160  C 162 161.68  160.68 163  159 163  C 157.32 163  156 161.68  156 160  C 156 158.32  157.32 157  159 157  Z " fill-rule="nonzero" fill="#ffffff" stroke="none" fill-opacity="0" />
    <path d="M 159 157.5  C 160.4 157.5  161.5 158.6  161.5 160  C 161.5 161.4  160.4 162.5  159 162.5  C 157.6 162.5  156.5 161.4  156.5 160  C 156.5 158.6  157.6 157.5  159 157.5  Z " stroke-width="1" stroke="#f2f2f2" fill="none" />
  </g>
</svg>