<?xml version="1.0" encoding="utf-8"?>
<svg version="1.1" xmlns:xlink="http://www.w3.org/1999/xlink" width="94px" height="70px" xmlns="http://www.w3.org/2000/svg">
  <g transform="matrix(1 0 0 1 -110 -282 )">
    <path d="M 110 282  L 204 282  L 204 352  L 110 352  L 110 282  " fill-rule="nonzero" fill="#cccccc" stroke="none" />
    <path d="M 115 287  L 199 287  L 199 347  L 115 347  L 115 287  " fill-rule="nonzero" fill="#ffffff" stroke="none" />
    <path d="M 164.13 303  C 161.19 303  158.88 300.69  158.88 297.75  C 158.88 294.81  161.19 292.5  164.13 292.5  C 167.07 292.5  169.38 294.81  169.38 297.75  C 169.38 300.69  167.07 303  164.13 303  " fill-rule="nonzero" fill="#cccccc" stroke="none" />
    <path d="M 117 345  L 117 314.2  L 137 300.2  L 165 319.978723404255  L 181 308.6  L 197 319.978723404255  L 197 345  L 117 345  " fill-rule="nonzero" fill="#169bd5" stroke="none" />
  </g>
</svg>