<?xml version="1.0" encoding="utf-8"?>
<svg version="1.1" xmlns:xlink="http://www.w3.org/1999/xlink" width="6px" height="6px" xmlns="http://www.w3.org/2000/svg">
  <g transform="matrix(1 0 0 1 -6 -6 )">
    <path d="M 9 6  C 10.68 6  12 7.32  12 9  C 12 10.68  10.68 12  9 12  C 7.32 12  6 10.68  6 9  C 6 7.32  7.32 6  9 6  Z " fill-rule="nonzero" fill="#ffffff" stroke="none" />
    <path d="M 9 6.5  C 10.4 6.5  11.5 7.6  11.5 9  C 11.5 10.4  10.4 11.5  9 11.5  C 7.6 11.5  6.5 10.4  6.5 9  C 6.5 7.6  7.6 6.5  9 6.5  Z " stroke-width="1" stroke="#f2f2f2" fill="none" />
  </g>
</svg>